<svg width="147" height="71" viewBox="0 0 147 71" fill="none" xmlns="http://www.w3.org/2000/svg">
<path d="M20.1235 50.2998C20.3835 50.4473 20.6356 50.6084 20.8787 50.7824C20.9165 50.6215 20.9571 50.4643 20.9861 50.2998H20.1235ZM7.76241 43.6612C8.24836 43.1182 8.84115 42.6814 9.50369 42.378C10.2484 42.0443 11.0577 41.8796 11.8735 41.8955C12.4749 41.8883 13.0729 41.9857 13.6409 42.1834C14.508 42.485 15.2552 43.0571 15.7723 43.8156C17.0202 43.1433 18.1975 42.3475 19.2866 41.4402C18.9714 41.0245 18.6149 40.642 18.2226 40.2982C17.3894 39.5852 16.4301 39.0345 15.3943 38.6747C14.1777 38.2552 12.8973 38.0511 11.6105 38.0715C10.2248 38.0481 8.85003 38.3204 7.57782 38.8701C6.45023 39.3616 5.43317 40.0752 4.58735 40.9682C3.74153 41.8613 3.08427 42.9156 2.65478 44.0683C2.21775 45.2227 1.99586 46.4474 2.0001 47.6819C1.99464 48.943 2.22091 50.1946 2.66766 51.374C3.09834 52.5205 3.75768 53.5674 4.60559 54.4511C5.48349 55.3542 6.53445 56.071 7.69565 56.5588C10.127 57.5185 12.8165 57.6019 15.3026 56.7945C16.2995 56.4559 17.2298 55.9463 18.052 55.2888C18.3793 55.0211 18.6857 54.7288 18.9685 54.4145C17.8662 53.5316 16.6794 52.7597 15.4253 52.1102C15.2538 52.2859 15.0684 52.4474 14.8707 52.5929C14.4746 52.8826 14.0379 53.1119 13.5746 53.2737C13.0947 53.4409 12.5897 53.5249 12.0814 53.5222C11.2427 53.5389 10.4095 53.383 9.63358 53.0642C8.95367 52.7792 8.34122 52.3545 7.83591 51.8177C7.33061 51.2809 6.94373 50.6438 6.70034 49.9479C6.44387 49.2206 6.31542 48.4544 6.32072 47.6831C6.31897 46.9431 6.443 46.2081 6.68748 45.5095C6.9211 44.8289 7.28635 44.2008 7.76241 43.6612Z" fill="#0B38DB"/>
<path d="M33.4206 43.8309V56.4526H29.414V54.6707C29.2498 54.9773 29.0377 55.2556 28.7859 55.4954C28.5163 55.7543 28.2122 55.9747 27.8823 56.1502C27.5288 56.3387 27.1556 56.4879 26.7696 56.595C26.3779 56.7073 25.9726 56.7647 25.5651 56.7655C24.7046 56.7751 23.852 56.601 23.0642 56.2548C22.3262 55.9299 21.6623 55.4576 21.1134 54.8669C20.5586 54.2597 20.1313 53.5474 19.8567 52.7721C19.2626 51.068 19.2626 49.2131 19.8567 47.5089C20.1313 46.7335 20.5586 46.0211 21.1134 45.4138C21.6626 44.8234 22.3264 44.3511 23.0642 44.0259C23.852 43.6795 24.7046 43.5055 25.5651 43.5153C25.9725 43.5163 26.3778 43.5735 26.7696 43.6853C27.1574 43.7933 27.5309 43.9473 27.8823 44.1438C28.2131 44.3286 28.5171 44.5576 28.7859 44.8246C29.0314 45.0653 29.2427 45.3385 29.414 45.6366V43.8294L33.4206 43.8309ZM26.4028 53.3617C26.8276 53.368 27.2483 53.2786 27.6338 53.1C27.9904 52.9326 28.3107 52.6967 28.5764 52.4058C28.8444 52.1076 29.0532 51.761 29.1917 51.3848C29.3409 50.987 29.4162 50.5654 29.414 50.1405C29.4201 49.3126 29.122 48.5113 28.5764 47.8886C28.3134 47.5914 27.9927 47.3509 27.6338 47.1816C27.2464 47.009 26.8271 46.9199 26.403 46.9199C25.9789 46.9199 25.5596 47.009 25.1722 47.1816C24.8132 47.3508 24.4925 47.5913 24.2296 47.8886C23.6841 48.5114 23.3859 49.3126 23.3915 50.1405C23.3893 50.5654 23.4648 50.9871 23.6143 51.3848C23.7525 51.7612 23.9614 52.1078 24.2296 52.4058C24.4952 52.6968 24.8155 52.9327 25.1722 53.1C25.5574 53.279 25.9781 53.3689 26.4028 53.3629V53.3617Z" fill="#0B38DB"/>
<path d="M36.8242 38.1228H40.8308V56.4525H36.8242V38.1228Z" fill="#0B38DB"/>
<path d="M43.6588 39.6414C43.6512 39.3061 43.7124 38.9728 43.8386 38.6621C43.9647 38.3513 44.1532 38.0696 44.3923 37.8345C44.6317 37.5938 44.9178 37.4046 45.2331 37.2785C45.5483 37.1524 45.8859 37.0921 46.2253 37.1014C46.9128 37.095 47.5754 37.3582 48.0712 37.8345C48.3086 38.0642 48.496 38.3407 48.6213 38.6464C48.7526 38.9616 48.8195 39.3 48.8179 39.6414C48.8204 39.9788 48.7534 40.313 48.6213 40.6234C48.4918 40.9267 48.305 41.2023 48.0712 41.4349C47.8354 41.671 47.5552 41.858 47.2468 41.985C46.9227 42.1176 46.5755 42.1844 46.2253 42.1813C45.8794 42.1853 45.5363 42.1185 45.2171 41.985C44.6055 41.7225 44.118 41.235 43.8555 40.6234C43.7233 40.313 43.6564 39.9788 43.6588 39.6414ZM44.2351 43.8309H48.2417V56.4526H44.2351V43.8309Z" fill="#0B38DB"/>
<path d="M63.3768 56.4525H58.7417L56.6727 52.7866L54.604 56.4525H49.9697L54.3181 50.0894L50.0497 43.8308H54.6848L56.6747 47.3922L58.6649 43.8308H63.3L59.0578 50.0894L63.3768 56.4525Z" fill="#0B38DB"/>
<path d="M83.772 66.4083C83.7611 66.5912 83.7865 66.7743 83.8467 66.9474C83.907 67.1204 84.0009 67.2798 84.123 67.4164C84.2423 67.5373 84.3855 67.6319 84.5434 67.6942C84.7014 67.7565 84.8707 67.7852 85.0403 67.7783C85.3102 67.787 85.574 67.6965 85.7819 67.5242C85.8798 67.442 85.9577 67.3385 86.0097 67.2218C86.0616 67.105 86.0863 66.9779 86.0819 66.8502C86.0864 66.7099 86.0532 66.5711 85.9858 66.448C85.9188 66.3355 85.8302 66.2374 85.7252 66.1593C85.6046 66.0699 85.4734 65.9957 85.3347 65.9385C85.1839 65.8745 85.021 65.8082 84.8477 65.7402C84.4852 65.6043 84.1398 65.4684 83.8114 65.3325C83.5048 65.2093 83.217 65.0435 82.9564 64.8402C82.7175 64.6509 82.5209 64.4137 82.3793 64.1437C82.2264 63.8304 82.1525 63.4844 82.1642 63.1359C82.1576 62.8004 82.2375 62.4689 82.3962 62.1733C82.5483 61.8972 82.7588 61.6577 83.0131 61.4715C83.2814 61.2772 83.5826 61.1332 83.9023 61.0465C84.2427 60.9518 84.5945 60.9043 84.9478 60.9053C85.3683 60.8973 85.7867 60.9662 86.1824 61.1087C86.5133 61.229 86.8148 61.4182 87.0671 61.6637C87.2973 61.8918 87.4768 62.1659 87.5939 62.468C87.7118 62.7752 87.7713 63.1017 87.7693 63.4308H85.9351C85.9521 63.13 85.8618 62.833 85.6801 62.5927C85.5898 62.4893 85.477 62.4079 85.3503 62.3549C85.2236 62.3019 85.0865 62.2787 84.9494 62.2871C84.707 62.2804 84.4689 62.3519 84.2702 62.4909C84.1759 62.5612 84.1008 62.654 84.0516 62.7609C84.0024 62.8677 83.9808 62.9852 83.9887 63.1025C83.9848 63.2248 84.0112 63.3461 84.0655 63.4557C84.1198 63.5653 84.2004 63.6597 84.3 63.7307C84.5517 63.9082 84.8283 64.0475 85.1208 64.1441C85.4457 64.2575 85.7742 64.3802 86.1064 64.5121C86.4238 64.6362 86.7243 64.7998 87.0008 64.9991C87.2616 65.1882 87.4828 65.4267 87.6519 65.7009C87.8291 66.0046 87.9174 66.3519 87.9068 66.7034C87.9134 67.0771 87.8379 67.4478 87.6856 67.7891C87.5442 68.0992 87.3331 68.3724 87.0687 68.5874C86.7905 68.81 86.4712 68.9754 86.1289 69.0744C85.739 69.1876 85.3345 69.2429 84.9285 69.2385C84.5264 69.2418 84.1265 69.1787 83.745 69.0515C83.3936 68.9359 83.0699 68.749 82.794 68.5026C82.522 68.2558 82.3076 67.9522 82.1658 67.6134C82.0085 67.231 81.9313 66.8204 81.939 66.407L83.772 66.4083Z" fill="#333333"/>
<path d="M89.5691 61.1085H91.4033V66.3179C91.4022 66.4937 91.433 66.6682 91.4941 66.8331C91.5508 66.9898 91.6374 67.134 91.7491 67.2577C91.8586 67.3788 91.9912 67.4769 92.1392 67.5461C92.2989 67.6198 92.4732 67.6567 92.6491 67.6539C92.8204 67.656 92.9903 67.6218 93.1474 67.5535C93.3046 67.4852 93.4454 67.3844 93.5608 67.2577C93.672 67.1338 93.7585 66.9896 93.8153 66.8331C93.8764 66.6682 93.9072 66.4937 93.9062 66.3179V61.1085H95.7404V66.3292C95.7435 66.7208 95.6704 67.1092 95.5252 67.4729C95.3868 67.8206 95.1765 68.1351 94.9079 68.3958C94.6276 68.664 94.2966 68.8737 93.9343 69.0127C93.5237 69.1692 93.0869 69.246 92.6475 69.2391C92.2104 69.2461 91.776 69.1693 91.3679 69.0127C91.0076 68.8729 90.6785 68.6632 90.3995 68.3958C90.1313 68.135 89.921 67.8205 89.7826 67.4729C89.6372 67.1093 89.5642 66.7208 89.5675 66.3292L89.5691 61.1085Z" fill="#333333"/>
<path d="M97.7002 61.1084H101.018C101.426 61.1027 101.831 61.1819 102.207 61.3409C102.549 61.4866 102.858 61.6982 103.118 61.9635C103.372 62.2249 103.57 62.5347 103.701 62.8743C103.973 63.5814 103.973 64.3641 103.701 65.0712C103.57 65.4111 103.372 65.7212 103.118 65.9829C102.858 66.2481 102.549 66.4597 102.207 66.6054C101.831 66.7644 101.426 66.8435 101.018 66.8378H99.5344V69.0344H97.7002V61.1084ZM100.791 65.3439C100.971 65.3459 101.149 65.307 101.312 65.2304C101.465 65.1591 101.602 65.057 101.714 64.9305C101.826 64.8021 101.912 64.6542 101.969 64.4942C102.089 64.1575 102.089 63.7896 101.969 63.453C101.912 63.293 101.826 63.1451 101.714 63.0167C101.602 62.8903 101.465 62.7881 101.312 62.7166C101.149 62.6401 100.971 62.6013 100.791 62.6032H99.5344V65.3439H100.791Z" fill="#333333"/>
<path d="M105.457 61.1084H108.775C109.183 61.1027 109.588 61.1819 109.964 61.3409C110.305 61.4867 110.615 61.6983 110.875 61.9635C111.129 62.2251 111.327 62.5351 111.458 62.8751C111.73 63.5822 111.73 64.365 111.458 65.0721C111.327 65.4121 111.129 65.7221 110.875 65.9837C110.615 66.2488 110.305 66.4604 109.964 66.6062C109.588 66.7653 109.183 66.8444 108.775 66.8386H107.291V69.0352H105.457V61.1084ZM108.548 65.3439C108.728 65.3461 108.907 65.3073 109.071 65.2304C109.224 65.1594 109.361 65.0573 109.473 64.9305C109.584 64.8022 109.671 64.6543 109.728 64.4942C109.848 64.1576 109.848 63.7895 109.728 63.453C109.671 63.2929 109.584 63.145 109.473 63.0167C109.361 62.89 109.224 62.7878 109.071 62.7166C108.907 62.6398 108.728 62.6011 108.548 62.6032H107.291V65.3439H108.548Z" fill="#333333"/>
<path d="M117.019 69.239C116.412 69.249 115.81 69.1315 115.252 68.894C114.753 68.6788 114.302 68.3649 113.927 67.9711C113.566 67.5872 113.285 67.1347 113.1 66.6404C112.723 65.6289 112.723 64.5151 113.1 63.5036C113.284 63.0093 113.566 62.5569 113.927 62.173C114.302 61.7785 114.753 61.4639 115.252 61.2481C116.383 60.7881 117.649 60.7881 118.78 61.2481C119.277 61.4651 119.725 61.7796 120.099 62.173C120.46 62.557 120.741 63.0094 120.925 63.5036C121.303 64.5151 121.303 65.629 120.925 66.6404C120.741 67.1346 120.46 67.5871 120.099 67.9711C119.725 68.3638 119.277 68.6776 118.78 68.894C118.224 69.1318 117.624 69.2493 117.019 69.239ZM117.019 67.5858C117.355 67.5917 117.688 67.52 117.992 67.3763C118.272 67.2424 118.521 67.0515 118.723 66.8157C118.925 66.5786 119.08 66.3058 119.182 66.0114C119.393 65.4027 119.393 64.7405 119.182 64.1318C119.08 63.8374 118.925 63.5647 118.723 63.3275C118.521 63.0921 118.272 62.9012 117.992 62.7669C117.686 62.6292 117.354 62.558 117.019 62.558C116.683 62.558 116.351 62.6292 116.045 62.7669C115.765 62.9012 115.516 63.0921 115.314 63.3275C115.112 63.5645 114.957 63.8373 114.856 64.1318C114.644 64.7404 114.644 65.4028 114.856 66.0114C114.957 66.306 115.112 66.5788 115.314 66.8157C115.516 67.0515 115.765 67.2424 116.045 67.3763C116.349 67.52 116.683 67.5917 117.019 67.5858Z" fill="#333333"/>
<path d="M122.896 61.1085H126.224C126.633 61.1026 127.038 61.1819 127.414 61.3409C127.755 61.4866 128.065 61.6982 128.325 61.9635C128.579 62.2252 128.777 62.5352 128.908 62.8751C129.045 63.2252 129.114 63.5979 129.112 63.9737C129.118 64.5098 128.975 65.0371 128.699 65.4967C128.426 65.9515 128.021 66.3127 127.538 66.533L129.124 69.0352H126.995L125.591 66.8386H124.73V69.0352H122.896V61.1085ZM125.987 65.3439C126.167 65.3459 126.345 65.3071 126.508 65.2304C126.661 65.1593 126.798 65.0572 126.91 64.9305C127.021 64.8023 127.108 64.6543 127.165 64.4942C127.285 64.1576 127.285 63.7895 127.165 63.453C127.108 63.2929 127.021 63.1449 126.91 63.0167C126.798 62.8901 126.661 62.7879 126.508 62.7166C126.345 62.64 126.167 62.6013 125.987 62.6032H124.73V65.3439H125.987Z" fill="#333333"/>
<path d="M131.784 62.6942H129.995V61.1085H135.419V62.6942H133.621V69.0352H131.786L131.784 62.6942Z" fill="#333333"/>
<path d="M84.981 51.9272C84.73 52.7674 84.3367 53.5583 83.8184 54.2656C83.2894 54.9905 82.6438 55.6225 81.9079 56.1359C81.1296 56.6764 80.2737 57.0954 79.3695 57.3786C78.3838 57.6877 77.3559 57.841 76.3229 57.8331C74.9157 57.8575 73.5188 57.5889 72.221 57.0444C71.073 56.5555 70.0366 55.8378 69.1752 54.935C68.3139 54.0322 67.6455 52.9634 67.2111 51.7936C66.7621 50.5982 66.5357 49.3307 66.5431 48.0537C66.5396 46.8083 66.7614 45.5726 67.1978 44.4062C67.6195 43.2639 68.2542 42.212 69.0682 41.3065C69.8999 40.3915 70.9089 39.6552 72.034 39.1422C73.2717 38.5839 74.6174 38.3056 75.975 38.327C77.1715 38.3091 78.3628 38.4857 79.5026 38.8499C80.4693 39.1618 81.3737 39.6412 82.1745 40.2662C82.9115 40.8504 83.5286 41.5717 83.9918 42.3903C84.4565 43.2155 84.7901 44.108 84.9806 45.0357H83.0837C82.9099 44.334 82.6304 43.6627 82.2549 43.045C81.8794 42.4284 81.3952 41.8853 80.8257 41.4417C80.2154 40.971 79.5283 40.6093 78.7948 40.3727C77.9528 40.1045 77.073 39.9738 76.1894 39.9855C75.0581 39.9653 73.9363 40.1933 72.9027 40.6534C71.9729 41.0751 71.1404 41.6847 70.4576 42.4438C69.7874 43.1964 69.27 44.0721 68.9343 45.0223C68.2303 47.0166 68.2398 49.1935 68.9612 51.1816C69.3138 52.1526 69.8639 53.0399 70.5769 53.7875C71.2898 54.535 72.1501 55.1266 73.1033 55.5248C74.1906 55.9772 75.3597 56.2001 76.5372 56.1794C77.2576 56.1804 77.974 56.0719 78.6617 55.8577C79.3241 55.6546 79.954 55.3576 80.5321 54.9757C81.0892 54.6053 81.5889 54.155 82.0152 53.6394C82.4373 53.1327 82.7632 52.5531 82.9767 51.9291L84.981 51.9272Z" fill="#FF7600"/>
<path d="M88.3213 38.7273H90.0586V57.4322H88.3213V38.7273Z" fill="#FF7600"/>
<path d="M99.6239 57.7269C98.7483 57.7405 97.8793 57.5723 97.0719 57.2331C96.3373 56.9193 95.6738 56.4603 95.1211 55.8835C94.5774 55.3125 94.1508 54.6406 93.8652 53.9058C93.5699 53.148 93.4205 52.3411 93.4249 51.5278C93.4213 50.7102 93.5707 49.8991 93.8652 49.1363C94.1466 48.3994 94.5737 47.7269 95.1211 47.1589C95.677 46.5894 96.34 46.1355 97.0719 45.8231C97.8792 45.4834 98.7482 45.3149 99.6239 45.3284C100.508 45.3167 101.385 45.4851 102.202 45.8231C102.945 46.1307 103.617 46.585 104.18 47.1589C104.727 47.7268 105.155 48.3993 105.436 49.1363C105.731 49.8989 105.881 50.71 105.878 51.5278C105.882 52.3413 105.732 53.1482 105.436 53.9058C105.15 54.6407 104.724 55.3126 104.18 55.8835C103.621 56.4647 102.947 56.9241 102.202 57.2331C101.385 57.5706 100.508 57.7386 99.6239 57.7269ZM99.6239 56.124C100.267 56.1345 100.905 56.0068 101.494 55.7496C102.028 55.5133 102.51 55.1727 102.911 54.7478C103.305 54.3257 103.613 53.831 103.819 53.2912C104.035 52.7286 104.144 52.1306 104.141 51.5278C104.144 50.9208 104.034 50.3184 103.819 49.7508C103.617 49.2039 103.307 48.7032 102.908 48.2786C102.509 47.854 102.028 47.5141 101.494 47.2792C100.905 47.0221 100.267 46.8945 99.6239 46.9049C98.9896 46.8962 98.3608 47.0238 97.7801 47.2792C97.2489 47.5137 96.7715 47.8548 96.3774 48.2813C95.9881 48.7096 95.6842 49.2084 95.4823 49.7508C95.2669 50.3184 95.1578 50.9208 95.1605 51.5278C95.1569 52.1306 95.266 52.7286 95.4823 53.2912C95.6864 53.8287 95.9901 54.3229 96.3774 54.7478C96.7713 55.1745 97.2488 55.5154 97.7801 55.7496C98.3608 56.0047 98.9897 56.132 99.6239 56.1227V56.124Z" fill="#FF7600"/>
<path d="M119.771 45.5944V57.4323H118.034V54.8669C117.682 55.6851 117.108 56.3886 116.378 56.8978C115.546 57.4696 114.554 57.7599 113.545 57.7258C112.825 57.7415 112.11 57.6044 111.447 57.3237C110.882 57.0797 110.382 56.7041 109.991 56.2282C109.628 55.7694 109.36 55.2424 109.203 54.6783C109.02 53.9809 108.934 53.2615 108.949 52.5406V45.5944H110.713V52.0346C110.708 52.5836 110.771 53.131 110.9 53.6645C111.01 54.1329 111.214 54.574 111.501 54.9603C111.78 55.3284 112.142 55.6258 112.556 55.8289C113.05 56.0571 113.59 56.1673 114.133 56.1506C114.73 56.1647 115.322 56.0317 115.856 55.7633C116.334 55.5158 116.749 55.1643 117.072 54.7347C117.396 54.3003 117.641 53.8115 117.794 53.2913C117.953 52.7628 118.035 52.2136 118.035 51.6615V45.5944H119.771Z" fill="#FF7600"/>
<path d="M133.854 54.9469C133.461 55.7847 132.829 56.4869 132.036 56.9644C131.201 57.4766 130.237 57.7406 129.257 57.7257C128.399 57.736 127.549 57.5678 126.759 57.2319C126.027 56.9202 125.368 56.4607 124.822 55.8823C124.285 55.3086 123.863 54.6372 123.579 53.9046C123.283 53.147 123.133 52.3401 123.137 51.5267C123.134 50.7089 123.284 49.8977 123.579 49.1351C123.859 48.4005 124.281 47.7285 124.822 47.1578C125.371 46.5866 126.03 46.1322 126.759 45.8218C127.548 45.4855 128.399 45.3171 129.257 45.3272C130.235 45.3124 131.198 45.5717 132.036 46.0756C132.835 46.5514 133.469 47.2598 133.854 48.106V38.7273H135.592V57.4322H133.855L133.854 54.9469ZM129.337 56.1227C129.981 56.1333 130.619 56.0056 131.208 55.7484C131.742 55.5121 132.224 55.1716 132.624 54.7467C133.018 54.3245 133.327 53.8298 133.533 53.2901C133.749 52.7275 133.858 52.1294 133.854 51.5267C133.857 50.9196 133.748 50.3172 133.533 49.7496C133.331 49.2028 133.021 48.702 132.622 48.2774C132.222 47.8528 131.742 47.513 131.208 47.278C130.619 47.0209 129.981 46.8932 129.337 46.9036C128.703 46.8949 128.074 47.0226 127.494 47.278C126.962 47.5125 126.485 47.8536 126.091 48.2802C125.702 48.7086 125.398 49.2074 125.196 49.7496C124.98 50.3172 124.871 50.9196 124.874 51.5267C124.87 52.1294 124.98 52.7275 125.196 53.2901C125.4 53.8274 125.704 54.3216 126.091 54.7467C126.485 55.1734 126.962 55.5144 127.494 55.7484C128.074 56.004 128.703 56.1316 129.337 56.1227Z" fill="#FF7600"/>
<path d="M21.2252 37.6322L19.9102 37.0572C21.5522 33.2974 24.2551 30.098 27.6878 27.8509C31.1205 25.6038 35.134 24.4066 39.2368 24.4058C39.6864 24.4058 40.1428 24.4206 40.6008 24.45C40.5711 23.9927 40.5562 23.5364 40.5562 23.0864C40.5567 18.3703 42.138 13.7904 45.0474 10.0787C47.9568 6.36704 52.0264 3.73764 56.6059 2.61081C61.1853 1.48398 66.0104 1.92475 70.3099 3.8626C74.6095 5.80046 78.1354 9.12362 80.3242 13.301C84.9074 11.7473 89.8854 11.8166 94.4235 13.4973C98.9617 15.1779 102.784 18.3676 105.25 22.5317C110.574 21.1539 116.225 21.9111 120.999 24.6417C125.772 27.3723 129.289 31.86 130.8 37.1476L129.42 37.5418C128.711 35.0586 127.518 32.7395 125.912 30.7176C124.305 28.6956 122.315 27.0103 120.057 25.758C117.798 24.5058 115.315 23.7112 112.748 23.4198C110.182 23.1283 107.584 23.3457 105.102 24.0595L104.554 24.2164L104.277 23.7193C101.99 19.6094 98.3048 16.4556 93.8909 14.8304C89.4771 13.2053 84.6268 13.2163 80.2204 14.8617L79.6092 15.0905L79.3236 14.5034C77.3814 10.5032 74.14 7.27993 70.129 5.36013C66.118 3.44034 61.5744 2.93754 57.2407 3.93388C52.907 4.93023 49.0393 7.36677 46.2694 10.8455C43.4995 14.3243 41.9913 18.6396 41.9911 23.0864C41.9916 23.7796 42.0284 24.4723 42.1012 25.1618L42.1937 26.042L41.313 25.9503C40.6233 25.8779 39.9303 25.8413 39.2368 25.8406C35.413 25.8414 31.6725 26.9574 28.4734 29.0517C25.2742 31.1461 22.7553 34.128 21.2252 37.6322Z" fill="#FF7600"/>
<path d="M144.998 41.8021C145.015 42.4202 144.847 43.0292 144.516 43.5512C144.184 44.0732 143.705 44.4845 143.138 44.7323C142.572 44.9801 141.944 45.0532 141.336 44.9423C140.728 44.8314 140.166 44.5415 139.724 44.1097C139.281 43.6778 138.978 43.1237 138.852 42.5184C138.726 41.913 138.784 41.2838 139.018 40.7115C139.252 40.1391 139.651 39.6497 140.165 39.3056C140.679 38.9616 141.283 38.7787 141.902 38.7804C142.304 38.7724 142.704 38.8446 143.079 38.9927C143.453 39.1408 143.794 39.3619 144.083 39.6431C144.371 39.9243 144.6 40.26 144.757 40.6307C144.914 41.0013 144.996 41.3995 144.998 41.8021ZM139.562 41.8021C139.553 42.117 139.607 42.4306 139.721 42.7242C139.836 43.0177 140.008 43.2851 140.228 43.5104C140.449 43.7357 140.712 43.9142 141.003 44.0352C141.294 44.1563 141.606 44.2175 141.921 44.215C142.231 44.2137 142.538 44.1502 142.823 44.0282C143.107 43.9062 143.365 43.7282 143.58 43.5048C143.795 43.2813 143.962 43.017 144.073 42.7275C144.184 42.438 144.235 42.1292 144.224 41.8194C144.237 41.5061 144.186 41.1935 144.076 40.9002C143.965 40.6068 143.796 40.3388 143.58 40.1122C143.363 39.8856 143.103 39.7049 142.815 39.5811C142.527 39.4573 142.216 39.3929 141.903 39.3916C141.589 39.3904 141.279 39.4524 140.99 39.5739C140.701 39.6954 140.439 39.8739 140.221 40.0988C140.002 40.3237 139.831 40.5903 139.718 40.8828C139.605 41.1752 139.552 41.4875 139.562 41.8009V41.8021ZM141.423 43.387H140.723V40.3648C141.107 40.2974 141.495 40.2666 141.884 40.2728C142.248 40.2429 142.613 40.3197 142.934 40.4939C143.03 40.5753 143.106 40.6771 143.157 40.7919C143.208 40.9067 143.233 41.0315 143.229 41.1571C143.216 41.3264 143.148 41.4867 143.034 41.6132C142.921 41.7398 142.77 41.8257 142.603 41.8576V41.8942C142.753 41.9551 142.884 42.0559 142.982 42.1858C143.079 42.3157 143.139 42.4698 143.155 42.6314C143.185 42.8941 143.26 43.1496 143.377 43.387H142.621C142.504 43.1547 142.423 42.9062 142.38 42.6498C142.325 42.3181 142.139 42.1705 141.754 42.1705H141.422L141.423 43.387ZM141.442 41.6734H141.774C142.161 41.6734 142.474 41.5439 142.474 41.231C142.474 40.9548 142.273 40.7702 141.831 40.7702C141.701 40.7674 141.571 40.7798 141.444 40.8072L141.442 41.6734Z" fill="#0B38DB"/>
</svg>
